<?xml version="1.0" encoding="utf-8"?>
<!-- Generator: Adobe Illustrator 22.1.0, SVG Export Plug-In . SVG Version: 6.00 Build 0)  -->
<svg version="1.1" id="Layer_1" xmlns="http://www.w3.org/2000/svg" xmlns:xlink="http://www.w3.org/1999/xlink" x="0px" y="0px"
	 viewBox="0 0 1004.9 494.3" style="enable-background:new 0 0 1004.9 494.3;" xml:space="preserve">
<title>RISD Weekend</title>
<g id="Layer_2_1_">
	<g id="Layer_1-2">
		<path d="M0,1.9h54.2c16.7,0,30.1,4.7,39.2,13.8c7.8,7.8,12.2,19.2,12.2,33.4v0.8c0,21.9-10.9,35.7-26.8,42.7l30.7,53.6H75.3
			L48.7,98.8H29.9v47.4H0V1.9z M52,72.4c15.3,0,23.5-8.7,23.5-21.7v-0.2c0-14.4-8.9-21.6-24.1-21.6H29.9v43.5H52z"/>
		<path d="M130.3,1.9h29.9v144.4h-29.9V1.9z"/>
		<path d="M179.6,126.8l17.7-22.1c9.7,8.4,21.4,16.3,35.9,16.3c11.6,0,18.6-5.8,18.6-14.2v-0.2c0-7.2-4.1-11.8-24.8-19.6
			c-25.6-9.9-41.4-19.6-41.4-44.3v-0.4C185.6,17.1,205,0,232.8,0c17.2-0.1,33.8,6.2,46.6,17.7l-16.7,22.7C253.6,33,243.1,27,232,27
			c-10.3,0-16.7,5.2-16.7,12.6v0.2c0,8.2,4.9,12.2,27.4,21.5c25.2,9.9,38.8,20.6,38.8,43.1v0.4c0,26.8-20.4,43.3-48.5,43.3
			C213.2,148.1,194,140.5,179.6,126.8z"/>
		<path d="M303.5,1.9h46.6C392,1.9,419,30.7,419,73v1.9c0,42.3-27,71.3-68.9,71.3h-46.6V1.9z M333.4,28.9v90.3h16.5
			c22.7,0,38.1-15.9,38.1-44.6v-1c0-28.7-15.5-44.8-38.1-44.8L333.4,28.9z"/>
		<path d="M182,175.9h31.6l24.3,95.1l26.4-95.5h26l26.6,95.5l24.1-95.1h30.9l-41.2,145.2h-27.4l-26.4-91.8l-26.4,91.8h-27.2
			L182,175.9z"/>
		<path d="M390.9,175.9h93v27h-63.3V234h55.7v27h-55.7v32.2h64.1v27h-93.8V175.9z"/>
		<path d="M508.2,175.9h93v27h-63.3V234h55.7v27h-55.7v32.2H602v27h-93.8V175.9z"/>
		<path d="M625.5,175.9h29.9v62.3l47.2-62.3h35.3l-48.5,61.2l50.5,83.1h-35.1l-36.1-59.4l-13.4,16.9v42.5h-29.9L625.5,175.9z"/>
		<path d="M742.2,242.5h152.2v27.6H742.2V242.5z"/>
		<path d="M509.8,349.9h93v27h-63.3v31.1h55.7v27h-55.7v32.2h64.1v27h-93.8V349.9z"/>
		<path d="M627.1,349.9h27.4l55.3,84.1v-84.1h29.3v144.4h-25.6l-57.1-87.2v87.2h-29.3V349.9z"/>
		<path d="M768,349.9h46.6c41.9,0,68.9,28.9,68.9,71.1v1.9c0,42.3-27,71.4-68.9,71.4H768V349.9z M797.9,376.9v90.3h16.5
			c22.7,0,38.2-15.9,38.2-44.5v-1c0-28.7-15.5-44.8-38.2-44.8L797.9,376.9z"/>
		<g>
			<path d="M910.6,429.3v-60.6l-14,5.6l-3.7-14.8l22.3-9.1h13v78.9H910.6z"/>
			<path d="M948.3,407.8c0-9.5,4.5-15.7,11.5-19.4c-5.8-3.5-9.7-8.9-9.7-17.3c0-12.4,10.5-21.6,26.6-21.6c15.9,0,26.4,9.3,26.4,21.6
				c0,8.5-4.1,13.8-9.9,17.3c6.8,3.9,11.7,9.7,11.7,19.2c0,14.4-12,23.5-28.2,23.5C959.8,431.1,948.3,422.1,948.3,407.8z
				 M964.6,406.8c0,6.6,4.7,10.9,12.2,10.9c7,0,11.7-4.1,11.7-10.9c0-7-5.2-10.9-11.7-10.9C969.9,395.9,964.6,399.8,964.6,406.8z
				 M966,372.8c0,6.2,4.5,9.9,10.7,9.9c5.8,0,10.3-3.7,10.3-9.9c0-5.8-4.3-9.9-10.3-9.9C970.3,362.9,966,367,966,372.8z"/>
		</g>
	</g>
</g>
</svg>
