<svg viewBox="0 0 183.28 183.28" xmlns="http://www.w3.org/2000/svg"><g fill="#97de4d"><circle cx="91.64" cy="91.64" r="18.95"/><path d="m136 58.1a18.84 18.84 0 0 0 -10.8-10.79 31.28 31.28 0 0 0 -10.55-2c-6-.27-7.8-.33-23-.33s-17 .06-23 .33a31.41 31.41 0 0 0 -10.56 2 18.78 18.78 0 0 0 -10.78 10.79 31.67 31.67 0 0 0 -2 10.56c-.27 6-.33 7.79-.33 23s.06 17 .33 23a31.54 31.54 0 0 0 2 10.55 17.55 17.55 0 0 0 4.25 6.54 17.78 17.78 0 0 0 6.54 4.25 31.74 31.74 0 0 0 10.56 1.95c6 .28 7.79.34 23 .34s17-.06 23-.34a31.61 31.61 0 0 0 10.51-1.95 18.89 18.89 0 0 0 10.8-10.8 31.35 31.35 0 0 0 1.95-10.55c.28-6 .34-7.8.34-23s-.06-17-.34-23a31.48 31.48 0 0 0 -1.92-10.55zm-44.36 62.74a29.2 29.2 0 1 1 29.2-29.2 29.2 29.2 0 0 1 -29.2 29.2zm30.36-52.73a6.83 6.83 0 1 1 6.83-6.83 6.82 6.82 0 0 1 -6.83 6.83z"/><path d="m91.64 0a91.64 91.64 0 1 0 91.64 91.64 91.64 91.64 0 0 0 -91.64-91.64zm56.52 115.08a42.07 42.07 0 0 1 -2.64 13.81 29.1 29.1 0 0 1 -16.63 16.63 42 42 0 0 1 -13.81 2.64c-6.06.28-8 .34-23.44.34s-17.38-.06-23.45-.34a42 42 0 0 1 -13.8-2.64 29.1 29.1 0 0 1 -16.63-16.63 41.81 41.81 0 0 1 -2.64-13.81c-.28-6.06-.34-8-.34-23.44s.06-17.38.34-23.45a41.74 41.74 0 0 1 2.64-13.8 29.1 29.1 0 0 1 16.63-16.63 41.49 41.49 0 0 1 13.8-2.64c6.07-.28 8-.35 23.45-.35s17.38.07 23.44.35a41.5 41.5 0 0 1 13.81 2.64 29.1 29.1 0 0 1 16.63 16.63 42 42 0 0 1 2.64 13.8c.28 6.07.34 8 .34 23.45s-.06 17.36-.34 23.44z"/></g></svg>
