<svg viewBox="0 0 335.45 335.59" xmlns="http://www.w3.org/2000/svg"><path d="m222.21 118.27a64.26 64.26 0 0 1 -12.46 13.73c0-3.59-6.64-8.51-14.25-8.54-6.35 0-12.43 2.91-12.46 10.32-.06 11.94 5.34 16.51 15 27.07 11.3 12 19.09 20.61 19.05 30.27-.1 20.17-22.81 37-41.85 36.85-3.69 0-10.8-1.31-13.35-3 0-6.81 4.87-14.84 9.44-19.94 1.68 5.13 9.18 10.33 19.4 10.33 5.88 0 13-4.44 13-12.11 0-6.9-7.54-17-18.69-28.49-10.75-10.85-16.61-18.86-16.56-29.37.1-20.75 21.8-33.74 39.7-33.66 6.5-.01 12.06 3.12 14.03 6.54zm-69.62 94.55c-1.25 6.05-3.56 8.9-9.44 12.1-2.87 1.57-12.09 1.87-29.91 1.79a56.35 56.35 0 0 0 4.81-12.47c1.32-6 3-14.45 6.41-38.46 3.56-25.19 5.34-38.63 6.76-49.32-5.16-.17-11.75-.12-16 .71 2.29-3.68 8.45-9.83 10.86-11s6.91-2.67 26.35-2.67c-3 8.37-6.76 28.67-10.32 54.31s-4.75 33-6.24 46.65c5.13-.01 12.8.14 16.72-1.64zm-108.43-48.43c3 .71 6.24.51 9.61.53a30.87 30.87 0 0 0 12.47-2.49c7.33-3.9 12.38-12 12.46-22.08.09-10.82-7.92-19-28.09-19.1-1.96 13.54-4.7 30.21-6.45 43.14zm221.05 106.47c0-7.67-7.22-12.68-17.45-12.73-10.56-.05-20.72 2.63-27.22 4.68 6.28 5.41 13.54 15.33 13.49 26.37 0 .57 0 2.34-.07 3.81 15.47-2.48 31.19-10.22 31.25-22.13zm-112.31 14.38c7.12-3.37 13.94-6.27 22.66-10.37-4.23-6-10.44-9.48-20.39-9.53-8.52 0-14.33 1.52-20 4.9 5.9 6.85 10.65 10.99 17.73 15zm25.69 8.24a15.17 15.17 0 0 0 .89-5.35 24 24 0 0 0 -1.25-7.65c-6.55 3.09-12.37 5.79-18.25 8.1 5.95 2.59 10.66 3.72 18.61 4.9zm-75.94 2.13c0-9.94 5.22-16.85 14.06-23.06a114.3 114.3 0 0 1 -18.22-22.83c-16.54 5.06-27.85 14-27.91 26.11 0 7.67 4.09 22.52 25.64 22.63 1.7 0 4.2-.18 6.34-.09 0-.85.08-2.19.09-2.76zm18.34-.35c8-1.56 12.19-3.48 20.92-6.59a78.45 78.45 0 0 1 -16.65-10.33 24.91 24.91 0 0 0 -4.26 16.92zm9.26-30.72a73.59 73.59 0 0 1 25.46-4.54c13.35.07 23.92 4.15 30.71 10.15 6-2.53 10.35-4.36 16-6.68-12.44-12.56-32.48-20.09-60.9-20.23a175.51 175.51 0 0 0 -24.5 1.87c5.32 8.27 8.77 13.49 13.23 19.43zm72.28 30.89c4.55 0 8.54-.13 12.8-.11a40.47 40.47 0 0 0 -8.68-27.17c-6 2.22-10 4-16 6.72a20 20 0 0 1 5.35 13.35 21.76 21.76 0 0 1 -1 6.77 66.08 66.08 0 0 0 7.53.44zm-80.74 6.42c2.56 13.19 21.19 27.47 46.56 27.59 25.86.13 41.7-13.16 46.2-28-4.27.18-7.47.2-12 .18-3.69 0-7.46-.08-11.44-.38-4.29 6.51-13.44 10.4-24.23 10.35-6.25 0-13.29-3.34-16.14-7.69-.45-.67.07-2.18.91-1.66a17.52 17.52 0 0 0 9.89 2.67c4.39 0 10.26-1.74 13.15-5.07a122.78 122.78 0 0 1 -25.3-6.84 264.42 264.42 0 0 1 -27.6 8.85zm143.15-135.15c-2.68 25.56-3.84 36.57-4.45 45.94 16.53 2.37 33.12 1.34 42.2-7.12 7.92-7.36 14.88-24.69 15-40.6.06-13.35-2.58-23.24-9.09-30.09-9-9.42-15.72-11-38.45-11.39-1.81 12.77-3.73 31.05-5.21 43.26zm20.57-73.82c6.54 0 15.82-4.47 15.82-11.29 0-3.13-3.48-6.07-7.74-6.07-8.22 0-15 4.74-18 16.42a55.92 55.92 0 0 0 9.92.94zm-144.23-61.1c0 9.95 4 15.55 11.09 20.7 4.85-3.95 9.92-8.32 15.62-12.55-9.36-4.31-26.71-8.15-26.71-8.15zm-44.28 23.22c10.23 0 21.77 3.35 37.92 11.95 4-2.82 6.12-5 10.69-8.68-13.61-6.58-21.91-15.67-22.42-27.89-13.52-.07-23.62 2.54-31.19 6.62-8.8 4.73-14.41 12.48-15.21 21.76 6.87-2.21 12.77-3.76 20.21-3.76zm-.47 5.47a42.73 42.73 0 0 0 -19.88 4.83c1.34 12 9.92 21.84 21.57 21.9 8.24 0 14.77-2.81 30.18-15-11.62-7.11-21.12-11.65-31.92-11.71zm-38.37 1.83c.09-18.19 23.34-37.86 64.84-37.66 2.34-15.64 24.85-24.75 46.73-24.64 22.44.11 45.22 10.79 58 21.37 31.26.15 51.74 14.9 51.68 26.84 0 5.4-5.23 10.59-13.75 10.55-3.13 0-6.94-2.47-6.94-5.08 4.6-1.53 7.87-4.07 7.87-8 0-11.65-11.3-18.06-32-18.16 9 9.14 16.84 21.81 16.75 38.86a28.27 28.27 0 0 1 -3.8 14.89 80.55 80.55 0 0 0 17.36 7.88c6.3-11.34 17.34-18.42 29.84-18.36s19.22 4.47 19.3 12c-.04 6.42-11.96 15.21-26.73 15.1-5.12 0-8.06-.16-12.89-.47-1.17 5.7-1.92 9-2.89 15.51 23.3-.17 41.64 0 53.24 11.75 7.63 7.71 10.74 18.59 10.68 30.8-.1 19.61-10.55 40.56-25.28 53.06-14.05 11.93-22 18.17-59.29 18.17a122.71 122.71 0 0 1 -14.43-.89c3.14-3.68 3.37-5.94 4.81-11 1.74-7.67 4.05-22.66 7.3-48.79 2.08-17.61 3.76-30.81 5.52-42.73-11.37.23-14.1.95-17.81 3.2a8.62 8.62 0 0 0 -4.45 7.66 13.37 13.37 0 0 0 2.68 6.76c-2.86 3.4-10 8.26-13.72 10.51-1.41-1.71-4.11-6.77-4.09-9.62 0-5.39 4.37-11.84 12.64-18.33 8-6.22 15.16-9.36 26.53-10.15 1.75-8.8 4-12.53 5.81-18.08-6.81-2-11-3.93-18.7-7.94-8.28 9-22.85 13.08-34.78 13-22.16-.11-45.14-7.24-67.24-20.7-14.54 9.29-26.74 13.39-42.95 13.27-17.34-.09-29.2-6.17-35.12-15.29-6.81 11.3-8.59 20.92-10.91 33.2 20.63.1 31.87 1.92 37.75 7.3 3 2.74 5.9 7.88 5.87 12.47-.07 15.34-8.92 25.85-24 36.86 9 15.1 29.08 50.54 42.33 72.48a216.53 216.53 0 0 1 28.24-1.53c23.59.11 54.9 6.28 73.58 20.3 14.23-4.77 27.07-8 37-7.93 21 .11 32.72 6.12 32.67 15.49-.08 15.35-22.26 29.11-52.53 33.3-7.63 24-42 36.18-66.68 36.06-35.52-.18-57.66-13.72-62.4-31.07a58.83 58.83 0 0 1 -7.22.44c-26.14-.13-44.85-12-44.78-27.93.08-15.35 15.13-28 43-33.79-18-29.64-32.15-54.53-40.33-67.63-4 0-10.4.18-12.1.17-2.36 17-3.88 30.16-5.34 39.53a64.25 64.25 0 0 0 14.6-1.07c-1.15 3.69-6.87 9.76-10.32 11.76-2.09 1.22-7.71 1.65-13.53 1.8-6.11 0-12.06-.14-14.89-.24a46.78 46.78 0 0 0 6.34-12.24c1.34-4.32 4.12-23.29 7.83-47.18 3.76-24.18 5.66-37.26 7.13-47.72-8 0-12.29.53-15.14 2.67-2.33 1.75-3.54 5.35-3.56 9.62a15.16 15.16 0 0 0 1.07 5.16c-3.42 2.25-10.08 5.68-14.07 7.65a13.75 13.75 0 0 1 -2.49-7.84 17.9 17.9 0 0 1 5.88-12.46c8.19-7.84 18.93-11.88 29.73-13.54 4.07-19.3 11.85-33 23.55-42.31a27.81 27.81 0 0 1 -1-7.07zm123.59-15.3c-5.71 4-9.56 7.78-14.69 12a48.28 48.28 0 0 0 14.15 1.73c7.11 0 12.15-2 14.83-4.54-6.04-4.19-9.2-6.03-14.29-9.19zm-34.12 27.45c18.7 10.32 35.12 17.89 49.61 18 10.8 0 21.9-5.14 30.64-14-6.79-4.59-14.22-10-21.29-15.16a32.59 32.59 0 0 1 -16.43 4 117.08 117.08 0 0 1 -28.58-3.6c-5.42 4.53-9.11 7.37-13.95 10.76zm35.72-51.74c-.85-.28-1-1.08 0-1.34 4.81-1.2 13 .77 17.49 3.07a71.79 71.79 0 0 1 16.56-2.54c-13.22-9.08-27.77-14.15-44.33-14.2-14.49 0-29.25 7-31.12 18.47a149.86 149.86 0 0 1 31.12 10.29 104 104 0 0 1 19.93-9.62 21.58 21.58 0 0 0 -9.65-4.13zm33.78 25.77c-.1 4-.85 6.77-4.27 9.88 7.36 5.15 13.32 9.44 19.83 14 4-5.67 5.31-11.31 5.34-18.7.05-9.94-8.08-22.16-12.75-25.64-6.28.54-9.91 1-15.89 3.21 5.66 5.45 7.88 12.04 7.74 17.25zm-14.28-5.61a19.31 19.31 0 0 0 -1.74-8c-3.74 1.74-10.68 6.15-14 8.28 3.87 2.14 8.79 4.31 13.89 7.75a12.76 12.76 0 0 0 1.85-8.03z" fill="#97de4d"/></svg>
