<svg viewBox="0 0 183.28 183.28" xmlns="http://www.w3.org/2000/svg"><path d="m91.64 0a91.64 91.64 0 1 0 91.64 91.64 91.64 91.64 0 0 0 -91.64-91.64zm46.75 67.66c.05 1 .07 2.08.07 3.12 0 31.88-24.26 68.63-68.63 68.63a68.31 68.31 0 0 1 -37-10.83 49.78 49.78 0 0 0 5.76.33 48.41 48.41 0 0 0 30-10.32 24.16 24.16 0 0 1 -22.59-16.76 23.38 23.38 0 0 0 4.54.44 24.15 24.15 0 0 0 6.35-.85 24.13 24.13 0 0 1 -19.32-23.65c0-.1 0-.2 0-.31a23.9 23.9 0 0 0 10.92 3 24.13 24.13 0 0 1 -7.49-32.18 68.46 68.46 0 0 0 49.72 25.2 23.66 23.66 0 0 1 -.63-5.5 24.13 24.13 0 0 1 41.73-16.5 48.31 48.31 0 0 0 15.32-5.85 24.18 24.18 0 0 1 -10.57 13.37 48 48 0 0 0 13.85-3.8 48.93 48.93 0 0 1 -12.03 12.46z" fill="#97de4d"/></svg>
